<?xml version="1.0" encoding="UTF-8" standalone="no"?>
<svg
   width="430"
   height="537"
   viewBox="0 0 430 537"
   version="1.1"
   id="svg10"
   sodipodi:docname="logo-head.svg"
   inkscape:version="1.2 (dc2aedaf03, 2022-05-15)"
   xmlns:inkscape="http://www.inkscape.org/namespaces/inkscape"
   xmlns:sodipodi="http://sodipodi.sourceforge.net/DTD/sodipodi-0.dtd"
   xmlns="http://www.w3.org/2000/svg"
   xmlns:svg="http://www.w3.org/2000/svg">
  <defs
     id="defs14" />
  <sodipodi:namedview
     id="namedview12"
     pagecolor="#ffffff"
     bordercolor="#000000"
     borderopacity="0.25"
     inkscape:showpageshadow="2"
     inkscape:pageopacity="0.0"
     inkscape:pagecheckerboard="0"
     inkscape:deskcolor="#d1d1d1"
     showgrid="false"
     inkscape:zoom="1.9124767"
     inkscape:cx="214.64314"
     inkscape:cy="226.66943"
     inkscape:window-width="1649"
     inkscape:window-height="1259"
     inkscape:window-x="934"
     inkscape:window-y="993"
     inkscape:window-maximized="0"
     inkscape:current-layer="svg10" />
  <path
     clip-path="url(#SVGID_2_)"
     fill="#FFF"
     d="M353 12.8v24s-42.6-16-70 13c-20 21-21.6 44.3-12.5 75.5C361 125.3 375 176 375 176l-9.4-58.3L394 83c0-41-34-68-41-70.2"
     id="path2" />
  <path
     clip-path="url(#SVGID_2_)"
     d="m 374,176 c 0,0 -14,-69.4 -104.4,-50.7 C 260.6,94 262,71 282,49.8 c 27.5,-29 70,-13 70,-13 v -24 C 337,6.2 322.8,5 307,5 249,5 216.7,48.3 203,77.8 l -52.47273,96.28554 C 148.89499,247.90223 302.20898,301.60683 373.9,175.9"
     id="path4"
     sodipodi:nodetypes="cccccsccc" />
  <path
     clip-path="url(#SVGID_2_)"
     fill="#231F20"
     d="M430 117.7L394 83l-28.4 34.7"
     id="path6" />
</svg>
