<?xml version="1.0" encoding="UTF-8" standalone="no"?>
<svg
   width="430"
   height="537"
   viewBox="0 0 430 537"
   version="1.1"
   id="svg24"
   sodipodi:docname="logo-body.svg"
   inkscape:version="1.2 (dc2aedaf03, 2022-05-15)"
   xmlns:inkscape="http://www.inkscape.org/namespaces/inkscape"
   xmlns:sodipodi="http://sodipodi.sourceforge.net/DTD/sodipodi-0.dtd"
   xmlns="http://www.w3.org/2000/svg"
   xmlns:svg="http://www.w3.org/2000/svg">
  <defs
     id="defs28" />
  <sodipodi:namedview
     id="namedview26"
     pagecolor="#ffffff"
     bordercolor="#000000"
     borderopacity="0.25"
     inkscape:showpageshadow="2"
     inkscape:pageopacity="0.0"
     inkscape:pagecheckerboard="0"
     inkscape:deskcolor="#d1d1d1"
     showgrid="false"
     inkscape:zoom="1.9124767"
     inkscape:cx="214.90458"
     inkscape:cy="268.23856"
     inkscape:window-width="3840"
     inkscape:window-height="2066"
     inkscape:window-x="-11"
     inkscape:window-y="-11"
     inkscape:window-maximized="1"
     inkscape:current-layer="svg24" />
  <path
     clip-path="url(#SVGID_2_)"
     d="m 374,176 c 0,0 -14,-69.4 -104.4,-50.7 -101.12007,16.71139 1.03446,-0.6212 -101.69983,16.90689 L 39.4,378 l 46.2,-8.6 19.3,24.2 c 127.6,0 291.7,-46 269,-217.7"
     id="path18"
     sodipodi:nodetypes="ccccccc" />
  <path
     clip-path="url(#SVGID_2_)"
     fill="#FFF"
     d="M127.2 356.7s4.2-1 11.7-2.5c7.3-1.7 18-4 30.4-7.5 6.3-1.7 13-3.7 20-6 7.2-2.4 14.6-5.2 22-8.3 7.6-3 15-6.8 22.5-11 7.4-4 14.6-8.7 21.4-14 1.7-1.3 3.5-2.5 5-4l5-4c3-3 6.2-6 9-9 3-3.2 5.4-6.5 8-9.7 1.3-1.6 2.4-3.3 3.6-5l1.8-2.4 1.6-2.6 3-5c1-1.8 2-3.5 2.8-5.2.5-1 1-1.7 1.3-2.6l1.2-2.7 2.3-5 3.7-10 2.8-9.7 2-9 1.4-8c.4-2.7.6-5 .8-7.3l.7-6.2.6-11.6 6.7.2-1 12c0 2-.4 4-.7 6.4-.3 2.3-.5 4.8-1 7.5-.6 2.6-1.2 5.4-1.7 8.4l-2.4 9c-1 3.3-2 6.6-3.2 10l-4 10.2c-1 1.8-1.8 3.5-2.6 5.3L301 260l-1.5 2.7-3 5.3-3.3 5.2-1.7 2.6-2 2.5c-1 1.7-2.4 3.4-3.7 5-2.8 3.3-5.5 6.6-8.6 9.7-3 3.2-6.2 6-9.5 9l-5 4.2-5.3 4c-7 5-14.5 9.8-22.2 13.7-7.6 4-15.3 7.4-23 10.4-7.6 3-15 5.6-22.2 7.7-7 2.3-14 4-20.3 5.7-12.7 3-23.3 5.3-30.8 6.7l-11.8 2.3"
     id="path22" />
</svg>
